<svg xmlns="http://www.w3.org/2000/svg" width="32" height="32" viewBox="0 0 32 32">
  <metadata><?xpacket begin="﻿" id="W5M0MpCehiHzreSzNTczkc9d"?>
<x:xmpmeta xmlns:x="adobe:ns:meta/" x:xmptk="Adobe XMP Core 5.6-c138 79.159824, 2016/09/14-01:09:01        ">
   <rdf:RDF xmlns:rdf="http://www.w3.org/1999/02/22-rdf-syntax-ns#">
      <rdf:Description rdf:about=""/>
   </rdf:RDF>
</x:xmpmeta>
                                                                                                    
                                                                                                    
                                                                                                    
                                                                                                    
                                                                                                    
                                                                                                    
                                                                                                    
                                                                                                    
                                                                                                    
                                                                                                    
                                                                                                    
                                                                                                    
                                                                                                    
                                                                                                    
                                                                                                    
                                                                                                    
                                                                                                    
                                                                                                    
                                                                                                    
                                                                                                    
                           
<?xpacket end="w"?></metadata>
<defs>
    <style>
      .cls-1 {
        fill: #5b6169;
        fill-rule: evenodd;
      }
    </style>
  </defs>
  <path id="Up" class="cls-1" d="M194,1914a16,16,0,1,1,16-16A16,16,0,0,1,194,1914Zm0-29a13,13,0,1,0,13,13A13.014,13.014,0,0,0,194,1885Zm5.5,17a1.486,1.486,0,0,1-1.1-.49h0L194,1896.72l-4.4,4.79h0a1.495,1.495,0,1,1-2.2-2.02h0l5.5-6a1.492,1.492,0,0,1,2.211,0l5.5,6h0A1.495,1.495,0,0,1,199.5,1902Z" transform="translate(-178 -1882)"/>
</svg>
