<svg xmlns="http://www.w3.org/2000/svg" xmlns:xlink="http://www.w3.org/1999/xlink" width="26.41" height="20.37" viewBox="0 0 26.41 20.37">
  <metadata><?xpacket begin="﻿" id="W5M0MpCehiHzreSzNTczkc9d"?>
<x:xmpmeta xmlns:x="adobe:ns:meta/" x:xmptk="Adobe XMP Core 5.6-c138 79.159824, 2016/09/14-01:09:01        ">
   <rdf:RDF xmlns:rdf="http://www.w3.org/1999/02/22-rdf-syntax-ns#">
      <rdf:Description rdf:about=""/>
   </rdf:RDF>
</x:xmpmeta>
                                                                                                    
                                                                                                    
                                                                                                    
                                                                                                    
                                                                                                    
                                                                                                    
                                                                                                    
                                                                                                    
                                                                                                    
                                                                                                    
                                                                                                    
                                                                                                    
                                                                                                    
                                                                                                    
                                                                                                    
                                                                                                    
                                                                                                    
                                                                                                    
                                                                                                    
                                                                                                    
                           
<?xpacket end="w"?></metadata>
<defs>
    <style>
      .cls-1 {
        fill: #fff;
        fill-rule: evenodd;
        filter: url(#filter);
      }
    </style>
    <filter id="filter" x="1226.78" y="1181.91" width="26.41" height="20.37" filterUnits="userSpaceOnUse">
      <feFlood result="flood" flood-color="#fff"/>
      <feComposite result="composite" operator="in" in2="SourceGraphic"/>
      <feBlend result="blend" in2="SourceGraphic"/>
    </filter>
  </defs>
  <path id="Twitter" class="cls-1" d="M1227,1196.8a24.2,24.2,0,0,0,5.05,1.26,2.75,2.75,0,0,0,3.34-1.35,0.664,0.664,0,0,0-.16-0.99s-5.66-.67-5.23-1.73c0,0-.03-0.6.75-0.47,0,0,1.1-2.13.66-2.4,0,0-.67-0.6-0.13-0.65,0,0,1.59.21,2.1,0.35,0,0,.35-0.13.03-0.37a1.827,1.827,0,0,1-.76-0.91s0.19-.46,1.05-0.08c0,0,.48-0.52.24-0.79,0,0-.73-0.44-0.38-0.79,0,0,1.65-2.08,3.48,1.2,0,0,.46.63,0.51,0.03,0,0,2.25-6.43,5.19-6.94a1.556,1.556,0,0,0,1.13-.11,1.375,1.375,0,0,1,1.09-.05,0.428,0.428,0,0,0,.59.16s1.16-.46.81,0.3a5.4,5.4,0,0,1-1.52,1.26c-0.4.02-.32,0.58,0.03,0.63,0,0,4.85.35,4.85,3.99,0,0,.29.87,1.2-0.03a9.873,9.873,0,0,1,1.74-.93s0.38-.25.33,0.32a6.629,6.629,0,0,1-2.03,2.23s-0.62.79,0.27,0.63a5.182,5.182,0,0,0,1.27-.43s1.06-.51.57,0.41a13.4,13.4,0,0,1-2.7,1.45,0.42,0.42,0,0,0-.32.38s-0.3,9.91-12.66,9.91a14.6,14.6,0,0,1-10.23-4.79S1226.38,1196.66,1227,1196.8Z" transform="translate(-1226.78 -1181.91)"/>
</svg>
