<svg xmlns="http://www.w3.org/2000/svg" xmlns:xlink="http://www.w3.org/1999/xlink" width="17.63" height="21.82" viewBox="0 0 17.63 21.82">
  <metadata><?xpacket begin="﻿" id="W5M0MpCehiHzreSzNTczkc9d"?>
<x:xmpmeta xmlns:x="adobe:ns:meta/" x:xmptk="Adobe XMP Core 5.6-c138 79.159824, 2016/09/14-01:09:01        ">
   <rdf:RDF xmlns:rdf="http://www.w3.org/1999/02/22-rdf-syntax-ns#">
      <rdf:Description rdf:about=""/>
   </rdf:RDF>
</x:xmpmeta>
                                                                                                    
                                                                                                    
                                                                                                    
                                                                                                    
                                                                                                    
                                                                                                    
                                                                                                    
                                                                                                    
                                                                                                    
                                                                                                    
                                                                                                    
                                                                                                    
                                                                                                    
                                                                                                    
                                                                                                    
                                                                                                    
                                                                                                    
                                                                                                    
                                                                                                    
                                                                                                    
                           
<?xpacket end="w"?></metadata>
<defs>
    <style>
      .cls-1 {
        fill: #fff;
        fill-rule: evenodd;
        filter: url(#filter);
      }
    </style>
    <filter id="filter" x="1051.09" y="1181.06" width="17.63" height="21.82" filterUnits="userSpaceOnUse">
      <feFlood result="flood" flood-color="#fff"/>
      <feComposite result="composite" operator="in" in2="SourceGraphic"/>
      <feBlend result="blend" in2="SourceGraphic"/>
    </filter>
  </defs>
  <path id="В" class="cls-1" d="M1067.49,1192.67a5.977,5.977,0,0,0-3.27-1.74v-0.12a4.734,4.734,0,0,0,2.23-1.83,5.15,5.15,0,0,0,.8-2.84,4.961,4.961,0,0,0-.58-2.43,4.235,4.235,0,0,0-1.77-1.68,7.063,7.063,0,0,0-2.35-.77,27.863,27.863,0,0,0-3.68-.18h-7.78v21.8h8.82a14.238,14.238,0,0,0,3.78-.41,7.8,7.8,0,0,0,2.73-1.37,5.98,5.98,0,0,0,1.68-2.04,6.308,6.308,0,0,0,.62-2.86A4.943,4.943,0,0,0,1067.49,1192.67Zm-6.11-4.17a1.791,1.791,0,0,1-.92.85,3.188,3.188,0,0,1-1.18.31c-0.38.02-1.04,0.03-1.99,0.03h-0.7v-4.62h0.39c0.99,0,1.73.01,2.23,0.03a3.568,3.568,0,0,1,1.29.25,1.641,1.641,0,0,1,.85.81,2.348,2.348,0,0,1,.28,1.08A3.077,3.077,0,0,1,1061.38,1188.5Zm1.29,9.01a2.206,2.206,0,0,1-1.1.95,4.813,4.813,0,0,1-1.69.39c-0.55.02-1.55,0.03-2.99,0.03h-0.3v-5.46h1.03c0.98,0,1.77.01,2.36,0.02a4.412,4.412,0,0,1,1.38.22,2.455,2.455,0,0,1,1.24.86,2.624,2.624,0,0,1,.42,1.58A2.835,2.835,0,0,1,1062.67,1197.51Z" transform="translate(-1051.09 -1181.06)"/>
</svg>
